# xmcd
#
# Track frame offsets: 
#        150
#        13532
#        31823
#        50774
#        69099
#        84556
#        100725
#        115278
#        128334
#        140483
#        152521
#        164658
#        176669
#        191237
#        204279
#        213287
#
# Disc length: 2973 seconds
#
# Revision: 1
# Processed by: cddbd v1.5.2PL0 Copyright (c) Steve Scherf et al.
# Submitted via: ExactAudioCopy v0.99pb5
#
DISCID=d20b9b10
DTITLE=Herbie Mann - Moon Dreams
DYEAR=2006
DGENRE=Jazz
TTITLE0=Chicken Littel
TTITLE1=After Work
TTITLE2=The Things We Did Last Summer
TTITLE3=The Devil And The Deep Blue Sea
TTITLE4=Moon Dreams
TTITLE5=Deep Night
TTITLE6=Cuban Love Song
TTITLE7=Scuffles
TTITLE8=A Spring Morning
TTITLE9=My Little Suede Shoes
TTITLE10=The Purple Grotto
TTITLE11=Why Do I Love You
TTITLE12=It Might As Well Be Spring
TTITLE13=Autumn Nocturne
TTITLE14=Love Is A Simple Thing
TTITLE15=Woodchuck
EXTD=
EXTT0=
EXTT1=
EXTT2=
EXTT3=
EXTT4=
EXTT5=
EXTT6=
EXTT7=
EXTT8=
EXTT9=
EXTT10=
EXTT11=
EXTT12=
EXTT13=
EXTT14=
EXTT15=
PLAYORDER=
